M48
; DRILL file KiCad 10.0.1 date 2026-04-29T01:11:05
; FORMAT={-:-/ absolute / metric / decimal}
; #@! TF.CreationDate,2026-04-29T01:11:05+08:00
; #@! TF.GenerationSoftware,Kicad,Pcbnew,10.0.1
; #@! TF.FileFunction,Plated,1,2,PTH
FMAT,2
METRIC
; #@! TA.AperFunction,Plated,PTH,ViaDrill
T1C0.300
; #@! TA.AperFunction,Plated,PTH,ComponentDrill
T2C1.000
%
G90
G05
T1
X77.8Y-105.8
X78.2Y-94.6
X78.4Y-101.6
X78.7Y-96.7
X78.9Y-99.2
X78.9Y-103.6
X81.4Y-100.9
X81.6Y-97.6
X82.19Y-104.41
X82.5Y-95.8
X82.8Y-92.35
X82.9Y-105.8
X82.9Y-106.75
X83.0Y-99.3
X83.0Y-109.7
X83.05Y-91.2
X83.1Y-93.4
X83.2Y-107.8
X83.4Y-102.2
X84.0Y-103.5
X84.3Y-109.2
X84.4Y-97.1
X85.8Y-100.2
X86.1Y-102.8
X86.9Y-96.7
X88.1Y-104.4
X88.2Y-101.1
X88.6Y-98.9
X88.6Y-104.9
X89.525Y-93.625
X89.8Y-96.3
X89.9Y-103.0
X90.22Y-108.3
X90.8Y-98.1
X90.8Y-100.4
X91.7Y-91.1
X92.4Y-101.5
X92.6Y-107.6
X93.5Y-90.6
X94.3Y-96.9
X94.3Y-98.9
X95.5Y-105.2
X96.0Y-108.8
X96.1Y-90.7
X96.1Y-106.6
X96.3Y-94.8
X96.3Y-100.0
X96.4Y-92.9
X96.4Y-97.3
X96.8Y-102.5
X97.5Y-105.3
X98.5Y-95.6
X98.5Y-98.6
X98.5Y-109.2
X98.6Y-103.2
X98.8Y-90.7
X101.0Y-109.0
X101.7Y-92.2
X101.8Y-90.8
X101.975Y-106.675
X102.6Y-100.9
X102.75Y-102.1
X102.754Y-103.505
X103.25Y-98.6
X103.6Y-90.6
X104.2Y-102.15
X104.7Y-98.6
X104.875Y-109.975
X106.65Y-98.1
X106.75Y-103.55
T2
X108.57Y-91.102
X108.57Y-93.642
X108.57Y-96.182
X108.57Y-98.722
X108.57Y-101.262
X108.57Y-103.802
X108.57Y-106.342
X108.57Y-108.882
X111.11Y-91.102
X111.11Y-93.642
X111.11Y-96.182
X111.11Y-98.722
X111.11Y-101.262
X111.11Y-103.802
X111.11Y-106.342
X111.11Y-108.882
M30
