%TF.GenerationSoftware,KiCad,Pcbnew,10.0.1*%
%TF.CreationDate,2026-04-29T01:11:07+08:00*%
%TF.ProjectId,OV5640_Module,4f563536-3430-45f4-9d6f-64756c652e6b,rev?*%
%TF.SameCoordinates,Original*%
%TF.FileFunction,Legend,Top*%
%TF.FilePolarity,Positive*%
%FSLAX46Y46*%
G04 Gerber Fmt 4.6, Leading zero omitted, Abs format (unit mm)*
G04 Created by KiCad (PCBNEW 10.0.1) date 2026-04-29 01:11:07*
%MOMM*%
%LPD*%
G01*
G04 APERTURE LIST*
%ADD10C,0.100000*%
%ADD11C,0.300000*%
%ADD12C,0.152000*%
%ADD13C,0.120000*%
%ADD14C,0.254000*%
G04 APERTURE END LIST*
D10*
X78300000Y-96600000D02*
X84700000Y-96600000D01*
X84700000Y-103362500D01*
X78300000Y-103362500D01*
X78300000Y-96600000D01*
X84325836Y-99981250D02*
G75*
G02*
X78674164Y-99981250I-2825836J0D01*
G01*
X78674164Y-99981250D02*
G75*
G02*
X84325836Y-99981250I2825836J0D01*
G01*
D11*
G36*
X94799168Y-95840976D02*
G01*
X91006531Y-95840976D01*
X91006531Y-94513758D01*
X91173198Y-94513758D01*
X91180640Y-94557289D01*
X91202416Y-94592801D01*
X91234700Y-94617161D01*
X91271567Y-94625041D01*
X91339161Y-94612585D01*
X91526648Y-94562668D01*
X91526648Y-95433974D01*
X91314615Y-95433974D01*
X91245684Y-95442407D01*
X91206446Y-95463191D01*
X91182440Y-95496419D01*
X91174206Y-95539487D01*
X91182437Y-95582570D01*
X91206446Y-95615874D01*
X91245674Y-95636589D01*
X91314615Y-95645000D01*
X91948883Y-95645000D01*
X92017809Y-95636586D01*
X92056960Y-95615874D01*
X92080970Y-95582570D01*
X92089200Y-95539487D01*
X92080966Y-95496419D01*
X92056960Y-95463191D01*
X92017799Y-95442411D01*
X91948883Y-95433974D01*
X91736758Y-95433974D01*
X91736758Y-94507805D01*
X92210650Y-94507805D01*
X92215665Y-94537041D01*
X92231261Y-94565228D01*
X92259835Y-94593442D01*
X92290461Y-94607117D01*
X92357196Y-94613318D01*
X92787582Y-95645000D01*
X92989449Y-95645000D01*
X93065127Y-95464016D01*
X93652935Y-95464016D01*
X93660905Y-95505193D01*
X93685951Y-95544536D01*
X93732894Y-95583725D01*
X93802499Y-95621143D01*
X93886083Y-95649487D01*
X93986208Y-95667757D01*
X94105853Y-95674309D01*
X94241420Y-95665284D01*
X94349533Y-95640554D01*
X94435317Y-95602691D01*
X94502900Y-95552859D01*
X94558374Y-95488153D01*
X94598524Y-95412344D01*
X94623631Y-95323235D01*
X94632501Y-95217819D01*
X94623953Y-95115787D01*
X94599441Y-95026822D01*
X94559739Y-94948571D01*
X94504365Y-94879298D01*
X94436285Y-94821944D01*
X94361066Y-94781396D01*
X94277231Y-94756678D01*
X94182698Y-94748140D01*
X94085571Y-94757716D01*
X93970573Y-94789173D01*
X93970573Y-94531252D01*
X94402974Y-94531252D01*
X94471881Y-94522791D01*
X94511051Y-94501943D01*
X94535180Y-94468609D01*
X94543383Y-94426289D01*
X94535127Y-94383039D01*
X94511051Y-94349627D01*
X94471871Y-94328710D01*
X94402974Y-94320226D01*
X93760463Y-94320226D01*
X93760463Y-94928849D01*
X93768336Y-94977316D01*
X93790688Y-95014212D01*
X93824579Y-95038854D01*
X93865976Y-95047093D01*
X93891139Y-95043334D01*
X93923403Y-95030332D01*
X94022607Y-94988815D01*
X94108244Y-94966161D01*
X94182698Y-94959166D01*
X94250089Y-94967211D01*
X94306816Y-94990307D01*
X94355347Y-95028592D01*
X94391607Y-95078696D01*
X94414325Y-95141236D01*
X94422483Y-95219742D01*
X94413782Y-95299267D01*
X94390074Y-95358894D01*
X94352782Y-95403474D01*
X94301924Y-95433243D01*
X94219524Y-95454708D01*
X94092572Y-95463283D01*
X93994867Y-95457670D01*
X93924502Y-95443041D01*
X93880110Y-95424152D01*
X93836300Y-95393490D01*
X93793657Y-95365715D01*
X93758448Y-95357770D01*
X93718519Y-95365645D01*
X93684167Y-95389552D01*
X93660664Y-95424202D01*
X93652935Y-95464016D01*
X93065127Y-95464016D01*
X93420843Y-94613318D01*
X93486722Y-94607264D01*
X93517105Y-94593900D01*
X93554916Y-94551263D01*
X93566290Y-94507805D01*
X93558036Y-94464745D01*
X93533958Y-94431509D01*
X93494808Y-94410726D01*
X93425972Y-94402292D01*
X93144146Y-94402292D01*
X93075215Y-94410725D01*
X93035977Y-94431509D01*
X93011971Y-94464737D01*
X93003737Y-94507805D01*
X93011968Y-94550889D01*
X93035977Y-94584192D01*
X93075206Y-94604908D01*
X93144146Y-94613318D01*
X93192323Y-94613318D01*
X92887966Y-95338444D01*
X92585716Y-94613318D01*
X92634900Y-94613318D01*
X92703739Y-94604883D01*
X92742428Y-94584192D01*
X92766080Y-94550927D01*
X92774210Y-94507805D01*
X92765976Y-94464737D01*
X92741970Y-94431509D01*
X92702927Y-94410700D01*
X92634900Y-94402292D01*
X92351059Y-94402292D01*
X92282143Y-94410729D01*
X92242982Y-94431509D01*
X92218904Y-94464745D01*
X92210650Y-94507805D01*
X91736758Y-94507805D01*
X91736758Y-94285055D01*
X91284848Y-94403574D01*
X91223446Y-94425965D01*
X91194722Y-94446714D01*
X91178961Y-94474539D01*
X91173198Y-94513758D01*
X91006531Y-94513758D01*
X91006531Y-94118388D01*
X94799168Y-94118388D01*
X94799168Y-95840976D01*
G37*
G36*
X94216579Y-103489980D02*
G01*
X94274749Y-103512254D01*
X94325580Y-103549217D01*
X94366275Y-103597251D01*
X94389275Y-103646578D01*
X94396837Y-103698785D01*
X94390301Y-103740898D01*
X94370623Y-103779060D01*
X94335838Y-103814740D01*
X94292394Y-103839932D01*
X94231864Y-103856878D01*
X94148900Y-103863283D01*
X94066639Y-103856911D01*
X94006154Y-103839991D01*
X93962329Y-103814740D01*
X93927106Y-103779071D01*
X93907372Y-103741595D01*
X93900872Y-103700892D01*
X93908495Y-103647299D01*
X93931537Y-103597280D01*
X93972038Y-103549217D01*
X94022927Y-103512255D01*
X94081158Y-103489980D01*
X94148900Y-103482264D01*
X94216579Y-103489980D01*
G37*
G36*
X94213762Y-102902723D02*
G01*
X94267628Y-102921251D01*
X94311200Y-102950761D01*
X94345517Y-102990429D01*
X94365457Y-103034007D01*
X94372199Y-103083110D01*
X94365424Y-103132937D01*
X94345451Y-103176866D01*
X94311200Y-103216558D01*
X94267628Y-103246069D01*
X94213762Y-103264597D01*
X94146794Y-103271238D01*
X94079141Y-103264577D01*
X94024936Y-103246030D01*
X93981289Y-103216558D01*
X93947093Y-103176873D01*
X93927148Y-103132944D01*
X93920381Y-103083110D01*
X93927115Y-103034001D01*
X93947027Y-102990423D01*
X93981289Y-102950761D01*
X94024936Y-102921290D01*
X94079141Y-102902743D01*
X94146794Y-102896081D01*
X94213762Y-102902723D01*
G37*
G36*
X94773523Y-104240976D02*
G01*
X90946081Y-104240976D01*
X90946081Y-103822250D01*
X91112748Y-103822250D01*
X91112748Y-104045000D01*
X92069783Y-104045000D01*
X92069783Y-103945348D01*
X92061555Y-103875344D01*
X92041573Y-103836538D01*
X92009066Y-103812897D01*
X91965278Y-103804665D01*
X91932086Y-103811338D01*
X91893562Y-103833974D01*
X91433408Y-103833974D01*
X91721525Y-103585165D01*
X91856559Y-103462480D01*
X91978566Y-103334545D01*
X92031315Y-103257042D01*
X92058471Y-103180248D01*
X92067677Y-103096024D01*
X92059643Y-103013364D01*
X92036112Y-102938407D01*
X92018731Y-102907805D01*
X92210650Y-102907805D01*
X92215665Y-102937041D01*
X92231261Y-102965228D01*
X92259835Y-102993442D01*
X92290461Y-103007117D01*
X92357196Y-103013318D01*
X92787582Y-104045000D01*
X92989449Y-104045000D01*
X93138124Y-103689443D01*
X93690853Y-103689443D01*
X93691827Y-103700892D01*
X93696658Y-103757659D01*
X93713848Y-103821809D01*
X93742602Y-103882883D01*
X93782363Y-103936893D01*
X93835108Y-103983533D01*
X93902887Y-104023109D01*
X93976872Y-104051146D01*
X94057768Y-104068374D01*
X94146794Y-104074309D01*
X94235832Y-104068404D01*
X94317432Y-104051203D01*
X94392716Y-104023109D01*
X94461909Y-103983444D01*
X94515285Y-103936967D01*
X94555107Y-103883433D01*
X94583811Y-103822638D01*
X94601025Y-103758318D01*
X94606856Y-103689443D01*
X94596569Y-103597531D01*
X94566372Y-103514962D01*
X94516879Y-103441079D01*
X94445014Y-103373179D01*
X94508740Y-103304960D01*
X94552084Y-103234968D01*
X94578568Y-103159065D01*
X94587438Y-103078256D01*
X94579743Y-103000631D01*
X94557096Y-102929568D01*
X94519184Y-102863480D01*
X94464432Y-102801284D01*
X94399733Y-102751133D01*
X94326713Y-102715097D01*
X94243781Y-102692823D01*
X94148809Y-102685055D01*
X94053888Y-102692820D01*
X93970968Y-102715090D01*
X93897930Y-102751126D01*
X93833186Y-102801284D01*
X93778478Y-102863475D01*
X93740593Y-102929561D01*
X93717961Y-103000626D01*
X93710271Y-103078256D01*
X93710815Y-103083110D01*
X93719224Y-103158170D01*
X93746083Y-103233961D01*
X93789605Y-103304165D01*
X93852695Y-103373179D01*
X93780885Y-103441069D01*
X93731337Y-103514962D01*
X93701140Y-103597531D01*
X93690853Y-103689443D01*
X93138124Y-103689443D01*
X93420843Y-103013318D01*
X93486722Y-103007264D01*
X93517105Y-102993900D01*
X93554916Y-102951263D01*
X93566290Y-102907805D01*
X93558036Y-102864745D01*
X93533958Y-102831509D01*
X93494808Y-102810726D01*
X93425972Y-102802292D01*
X93144146Y-102802292D01*
X93075215Y-102810725D01*
X93035977Y-102831509D01*
X93011971Y-102864737D01*
X93003737Y-102907805D01*
X93011968Y-102950889D01*
X93035977Y-102984192D01*
X93075206Y-103004908D01*
X93144146Y-103013318D01*
X93192323Y-103013318D01*
X92887966Y-103738444D01*
X92585716Y-103013318D01*
X92634900Y-103013318D01*
X92703739Y-103004883D01*
X92742428Y-102984192D01*
X92766080Y-102950927D01*
X92774210Y-102907805D01*
X92765976Y-102864737D01*
X92741970Y-102831509D01*
X92702927Y-102810700D01*
X92634900Y-102802292D01*
X92351059Y-102802292D01*
X92282143Y-102810729D01*
X92242982Y-102831509D01*
X92218904Y-102864745D01*
X92210650Y-102907805D01*
X92018731Y-102907805D01*
X91996930Y-102869421D01*
X91940640Y-102805223D01*
X91873766Y-102753356D01*
X91798344Y-102716100D01*
X91712738Y-102693081D01*
X91614759Y-102685055D01*
X91530726Y-102691298D01*
X91451995Y-102709696D01*
X91377538Y-102740193D01*
X91309201Y-102782025D01*
X91254422Y-102830890D01*
X91211575Y-102887105D01*
X91177419Y-102950567D01*
X91159843Y-103000618D01*
X91154697Y-103040245D01*
X91162361Y-103078154D01*
X91185929Y-103111687D01*
X91220190Y-103134660D01*
X91260210Y-103142278D01*
X91294850Y-103137518D01*
X91322217Y-103124051D01*
X91343669Y-103101197D01*
X91361693Y-103063235D01*
X91390396Y-103001592D01*
X91424158Y-102960928D01*
X91477248Y-102925404D01*
X91538996Y-102903678D01*
X91611736Y-102896081D01*
X91684009Y-102903204D01*
X91742643Y-102923139D01*
X91790522Y-102954974D01*
X91828803Y-102997607D01*
X91850486Y-103042274D01*
X91857658Y-103090529D01*
X91851869Y-103129536D01*
X91833152Y-103172316D01*
X91798216Y-103220497D01*
X91706976Y-103312376D01*
X91500810Y-103496402D01*
X91112748Y-103822250D01*
X90946081Y-103822250D01*
X90946081Y-102518388D01*
X94773523Y-102518388D01*
X94773523Y-104240976D01*
G37*
D12*
X103827869Y-101890999D02*
X104753155Y-101890999D01*
X104753155Y-101890999D02*
X104862012Y-101836570D01*
X104862012Y-101836570D02*
X104916441Y-101782142D01*
X104916441Y-101782142D02*
X104970869Y-101673284D01*
X104970869Y-101673284D02*
X104970869Y-101455570D01*
X104970869Y-101455570D02*
X104916441Y-101346713D01*
X104916441Y-101346713D02*
X104862012Y-101292284D01*
X104862012Y-101292284D02*
X104753155Y-101237856D01*
X104753155Y-101237856D02*
X103827869Y-101237856D01*
X104970869Y-100094855D02*
X104970869Y-100747998D01*
X104970869Y-100421427D02*
X103827869Y-100421427D01*
X103827869Y-100421427D02*
X103991155Y-100530284D01*
X103991155Y-100530284D02*
X104100012Y-100639141D01*
X104100012Y-100639141D02*
X104154441Y-100747998D01*
X103827869Y-99387284D02*
X103827869Y-99278427D01*
X103827869Y-99278427D02*
X103882298Y-99169570D01*
X103882298Y-99169570D02*
X103936726Y-99115142D01*
X103936726Y-99115142D02*
X104045583Y-99060713D01*
X104045583Y-99060713D02*
X104263298Y-99006284D01*
X104263298Y-99006284D02*
X104535441Y-99006284D01*
X104535441Y-99006284D02*
X104753155Y-99060713D01*
X104753155Y-99060713D02*
X104862012Y-99115142D01*
X104862012Y-99115142D02*
X104916441Y-99169570D01*
X104916441Y-99169570D02*
X104970869Y-99278427D01*
X104970869Y-99278427D02*
X104970869Y-99387284D01*
X104970869Y-99387284D02*
X104916441Y-99496142D01*
X104916441Y-99496142D02*
X104862012Y-99550570D01*
X104862012Y-99550570D02*
X104753155Y-99604999D01*
X104753155Y-99604999D02*
X104535441Y-99659427D01*
X104535441Y-99659427D02*
X104263298Y-99659427D01*
X104263298Y-99659427D02*
X104045583Y-99604999D01*
X104045583Y-99604999D02*
X103936726Y-99550570D01*
X103936726Y-99550570D02*
X103882298Y-99496142D01*
X103882298Y-99496142D02*
X103827869Y-99387284D01*
X103827869Y-98625285D02*
X103827869Y-97917713D01*
X103827869Y-97917713D02*
X104263298Y-98298713D01*
X104263298Y-98298713D02*
X104263298Y-98135428D01*
X104263298Y-98135428D02*
X104317726Y-98026571D01*
X104317726Y-98026571D02*
X104372155Y-97972142D01*
X104372155Y-97972142D02*
X104481012Y-97917713D01*
X104481012Y-97917713D02*
X104753155Y-97917713D01*
X104753155Y-97917713D02*
X104862012Y-97972142D01*
X104862012Y-97972142D02*
X104916441Y-98026571D01*
X104916441Y-98026571D02*
X104970869Y-98135428D01*
X104970869Y-98135428D02*
X104970869Y-98461999D01*
X104970869Y-98461999D02*
X104916441Y-98570856D01*
X104916441Y-98570856D02*
X104862012Y-98625285D01*
%TO.C,R101*%
D13*
X89632258Y-108677500D02*
X89157742Y-108677500D01*
X89632258Y-109722500D02*
X89157742Y-109722500D01*
%TO.C,C101*%
X83785000Y-106240580D02*
X83785000Y-105959420D01*
X84805000Y-106240580D02*
X84805000Y-105959420D01*
%TO.C,R102*%
X86632258Y-108677500D02*
X86157742Y-108677500D01*
X86632258Y-109722500D02*
X86157742Y-109722500D01*
%TO.C,C110*%
X93559420Y-91590000D02*
X93840580Y-91590000D01*
X93559420Y-92610000D02*
X93840580Y-92610000D01*
%TO.C,C108*%
X93459420Y-109090000D02*
X93740580Y-109090000D01*
X93459420Y-110110000D02*
X93740580Y-110110000D01*
%TO.C,U103*%
D14*
X95428000Y-91872000D02*
X97231000Y-91872000D01*
X95428000Y-108128000D02*
X95428000Y-91872000D01*
X97231000Y-108128000D02*
X95428000Y-108128000D01*
X100194000Y-91872000D02*
X100635000Y-91872000D01*
X100635000Y-91872000D02*
X100635000Y-93870000D01*
X100635000Y-106129000D02*
X100635000Y-108128000D01*
X100635000Y-108128000D02*
X100194000Y-108128000D01*
X101778000Y-93673000D02*
G75*
G02*
X101524000Y-93673000I-127000J0D01*
G01*
X101524000Y-93673000D02*
G75*
G02*
X101778000Y-93673000I127000J0D01*
G01*
%TO.C,R108*%
D13*
X105462742Y-108477500D02*
X105937258Y-108477500D01*
X105462742Y-109522500D02*
X105937258Y-109522500D01*
%TO.C,C102*%
X83690000Y-91890580D02*
X83690000Y-91609420D01*
X84710000Y-91890580D02*
X84710000Y-91609420D01*
%TO.C,R110*%
X91077500Y-109237258D02*
X91077500Y-108762742D01*
X92122500Y-109237258D02*
X92122500Y-108762742D01*
%TO.C,R107*%
X105462742Y-107177500D02*
X105937258Y-107177500D01*
X105462742Y-108222500D02*
X105937258Y-108222500D01*
%TO.C,C105*%
X93459420Y-104790000D02*
X93740580Y-104790000D01*
X93459420Y-105810000D02*
X93740580Y-105810000D01*
%TO.C,C107*%
X93459420Y-107915000D02*
X93740580Y-107915000D01*
X93459420Y-108935000D02*
X93740580Y-108935000D01*
%TO.C,U102*%
X85890000Y-90690000D02*
X87710000Y-90690000D01*
X85890000Y-90740000D02*
X85890000Y-90690000D01*
X85890000Y-93810000D02*
X85890000Y-93760000D01*
X87710000Y-90690000D02*
X87710000Y-90740000D01*
X87710000Y-91860000D02*
X87710000Y-92640000D01*
X87710000Y-93760000D02*
X87710000Y-93810000D01*
X87710000Y-93810000D02*
X85890000Y-93810000D01*
X85350000Y-90740000D02*
X85110000Y-90410000D01*
X85590000Y-90410000D01*
X85350000Y-90740000D01*
G36*
X85350000Y-90740000D02*
G01*
X85110000Y-90410000D01*
X85590000Y-90410000D01*
X85350000Y-90740000D01*
G37*
%TO.C,J101*%
X107459532Y-110212209D02*
X107459532Y-108882209D01*
X108569532Y-110212209D02*
X107459532Y-110212209D01*
X110059532Y-90742209D02*
X109619532Y-90742209D01*
X110059532Y-91462209D02*
X109619532Y-91462209D01*
X110059532Y-93282209D02*
X109619532Y-93282209D01*
X110059532Y-94002209D02*
X109619532Y-94002209D01*
X110059532Y-95822209D02*
X109619532Y-95822209D01*
X110059532Y-96542209D02*
X109619532Y-96542209D01*
X110059532Y-98362209D02*
X109619532Y-98362209D01*
X110059532Y-99082209D02*
X109619532Y-99082209D01*
X110059532Y-100902209D02*
X109619532Y-100902209D01*
X110059532Y-101622209D02*
X109619532Y-101622209D01*
X110059532Y-103442209D02*
X109619532Y-103442209D01*
X110059532Y-104162209D02*
X109619532Y-104162209D01*
X110059532Y-105982209D02*
X109619532Y-105982209D01*
X110059532Y-106702209D02*
X109619532Y-106702209D01*
X110059532Y-108522209D02*
X109679532Y-108522209D01*
X110059532Y-109242209D02*
X109679532Y-109242209D01*
X112569532Y-90742209D02*
X112159532Y-90742209D01*
X112569532Y-91462209D02*
X112159532Y-91462209D01*
X112569532Y-93282209D02*
X112159532Y-93282209D01*
X112569532Y-94002209D02*
X112159532Y-94002209D01*
X112569532Y-95822209D02*
X112159532Y-95822209D01*
X112569532Y-96542209D02*
X112159532Y-96542209D01*
X112569532Y-98362209D02*
X112159532Y-98362209D01*
X112569532Y-99082209D02*
X112159532Y-99082209D01*
X112569532Y-100902209D02*
X112159532Y-100902209D01*
X112569532Y-101622209D02*
X112159532Y-101622209D01*
X112569532Y-103442209D02*
X112159532Y-103442209D01*
X112569532Y-104162209D02*
X112159532Y-104162209D01*
X112569532Y-105982209D02*
X112159532Y-105982209D01*
X112569532Y-106702209D02*
X112159532Y-106702209D01*
X112569532Y-108522209D02*
X112159532Y-108522209D01*
X112569532Y-109242209D02*
X112159532Y-109242209D01*
X112569532Y-110212209D02*
X112569532Y-89772209D01*
X121199532Y-89772209D02*
X112569532Y-89772209D01*
X121199532Y-92372209D02*
X112569532Y-92372209D01*
X121199532Y-94912209D02*
X112569532Y-94912209D01*
X121199532Y-97452209D02*
X112569532Y-97452209D01*
X121199532Y-99992209D02*
X112569532Y-99992209D01*
X121199532Y-102532209D02*
X112569532Y-102532209D01*
X121199532Y-105072209D02*
X112569532Y-105072209D01*
X121199532Y-107612209D02*
X112569532Y-107612209D01*
X121199532Y-107730304D02*
X112569532Y-107730304D01*
X121199532Y-107848399D02*
X112569532Y-107848399D01*
X121199532Y-107966495D02*
X112569532Y-107966495D01*
X121199532Y-108084590D02*
X112569532Y-108084590D01*
X121199532Y-108202685D02*
X112569532Y-108202685D01*
X121199532Y-108320780D02*
X112569532Y-108320780D01*
X121199532Y-108438876D02*
X112569532Y-108438876D01*
X121199532Y-108556971D02*
X112569532Y-108556971D01*
X121199532Y-108675066D02*
X112569532Y-108675066D01*
X121199532Y-108793161D02*
X112569532Y-108793161D01*
X121199532Y-108911257D02*
X112569532Y-108911257D01*
X121199532Y-109029352D02*
X112569532Y-109029352D01*
X121199532Y-109147447D02*
X112569532Y-109147447D01*
X121199532Y-109265542D02*
X112569532Y-109265542D01*
X121199532Y-109383638D02*
X112569532Y-109383638D01*
X121199532Y-109501733D02*
X112569532Y-109501733D01*
X121199532Y-109619828D02*
X112569532Y-109619828D01*
X121199532Y-109737923D02*
X112569532Y-109737923D01*
X121199532Y-109856019D02*
X112569532Y-109856019D01*
X121199532Y-109974114D02*
X112569532Y-109974114D01*
X121199532Y-110092209D02*
X112569532Y-110092209D01*
X121199532Y-110212209D02*
X112569532Y-110212209D01*
X121199532Y-110212209D02*
X121199532Y-89772209D01*
%TO.C,C109*%
X93559420Y-92790000D02*
X93840580Y-92790000D01*
X93559420Y-93810000D02*
X93840580Y-93810000D01*
%TO.C,R106*%
X102562742Y-108477500D02*
X103037258Y-108477500D01*
X102562742Y-109522500D02*
X103037258Y-109522500D01*
%TO.C,C104*%
X88965000Y-91611252D02*
X88965000Y-91088748D01*
X90435000Y-91611252D02*
X90435000Y-91088748D01*
%TO.C,C103*%
X89160000Y-105961252D02*
X89160000Y-105438748D01*
X90630000Y-105961252D02*
X90630000Y-105438748D01*
%TO.C,R103*%
X88937258Y-94127500D02*
X88462742Y-94127500D01*
X88937258Y-95172500D02*
X88462742Y-95172500D01*
%TO.C,R104*%
X86037258Y-94127500D02*
X85562742Y-94127500D01*
X86037258Y-95172500D02*
X85562742Y-95172500D01*
%TO.C,R105*%
X103037258Y-107177500D02*
X102562742Y-107177500D01*
X103037258Y-108222500D02*
X102562742Y-108222500D01*
%TO.C,C106*%
X93464420Y-105990000D02*
X93745580Y-105990000D01*
X93464420Y-107010000D02*
X93745580Y-107010000D01*
%TO.C,U101*%
X85980000Y-105140000D02*
X87800000Y-105140000D01*
X85980000Y-105190000D02*
X85980000Y-105140000D01*
X85980000Y-108260000D02*
X85980000Y-108210000D01*
X87800000Y-105140000D02*
X87800000Y-105190000D01*
X87800000Y-106310000D02*
X87800000Y-107090000D01*
X87800000Y-108210000D02*
X87800000Y-108260000D01*
X87800000Y-108260000D02*
X85980000Y-108260000D01*
X85440000Y-105190000D02*
X85200000Y-104860000D01*
X85680000Y-104860000D01*
X85440000Y-105190000D01*
G36*
X85440000Y-105190000D02*
G01*
X85200000Y-104860000D01*
X85680000Y-104860000D01*
X85440000Y-105190000D01*
G37*
%TO.C,R111*%
X91177500Y-92462742D02*
X91177500Y-92937258D01*
X92222500Y-92462742D02*
X92222500Y-92937258D01*
%TO.C,R109*%
X91077500Y-105462742D02*
X91077500Y-105937258D01*
X92122500Y-105462742D02*
X92122500Y-105937258D01*
%TD*%
M02*
